<svg width="43" height="85" viewBox="0 0 43 85" fill="none" xmlns="http://www.w3.org/2000/svg">
<path d="M44.1815 4.0506C43.2541 4.97806 41.754 4.97806 40.8265 4.0506C39.8991 3.12313 39.8991 1.62306 40.8265 0.695597C41.754 -0.231866 43.2541 -0.231866 44.1815 0.695597C45.1009 1.615 45.1009 3.12313 44.1815 4.0506ZM54.2143 10.7203C53.2868 9.7928 51.7867 9.7928 50.8593 10.7203C49.9318 11.6477 49.9318 13.1478 50.8593 14.0753C51.7867 15.0027 53.2868 15.0027 54.2143 14.0753C55.1337 13.1559 55.1337 11.6477 54.2143 10.7203ZM64.2389 20.753C63.3115 19.8255 61.8114 19.8255 60.8839 20.753C59.9565 21.6805 59.9565 23.1805 60.8839 24.108C61.8114 25.0355 63.3115 25.0355 64.2389 24.108C65.1664 23.1805 65.1664 21.6805 64.2389 20.753ZM74.2717 30.7857C73.3442 29.8582 71.8441 29.8582 70.9167 30.7857C69.9892 31.7132 69.9892 33.2133 70.9167 34.1407C71.8441 35.0682 73.3442 35.0682 74.2717 34.1407C75.1991 33.2133 75.1991 31.7132 74.2717 30.7857ZM84.3044 40.8184C83.3769 39.891 81.8769 39.891 80.9494 40.8184C80.0219 41.7459 80.0219 43.246 80.9494 44.1735C81.8769 45.1009 83.3769 45.1009 84.3044 44.1735C85.2319 43.246 85.2319 41.7459 84.3044 40.8184ZM34.1488 10.7203C33.2213 9.7928 31.7213 9.7928 30.7938 10.7203C29.8663 11.6477 29.8663 13.1478 30.7938 14.0753C31.7213 15.0027 33.2213 15.0027 34.1488 14.0753C35.0763 13.1559 35.0763 11.6477 34.1488 10.7203ZM44.1815 20.753C43.2541 19.8255 41.754 19.8255 40.8265 20.753C39.8991 21.6805 39.8991 23.1805 40.8265 24.108C41.754 25.0355 43.2541 25.0355 44.1815 24.108C45.1009 23.1805 45.1009 21.6805 44.1815 20.753ZM54.2143 30.7857C53.2868 29.8582 51.7867 29.8582 50.8593 30.7857C49.9318 31.7132 49.9318 33.2133 50.8593 34.1407C51.7867 35.0682 53.2868 35.0682 54.2143 34.1407C55.1337 33.2133 55.1337 31.7132 54.2143 30.7857ZM64.2389 40.8184C63.3115 39.891 61.8114 39.891 60.8839 40.8184C59.9565 41.7459 59.9565 43.246 60.8839 44.1735C61.8114 45.1009 63.3115 45.1009 64.2389 44.1735C65.1664 43.246 65.1664 41.7459 64.2389 40.8184ZM74.2717 50.8512C73.3442 49.9237 71.8441 49.9237 70.9167 50.8512C69.9892 51.7786 69.9892 53.2787 70.9167 54.2062C71.8441 55.1337 73.3442 55.1337 74.2717 54.2062C75.1991 53.2787 75.1991 51.7786 74.2717 50.8512ZM24.1161 20.753C23.1886 19.8255 21.6885 19.8255 20.7611 20.753C19.8336 21.6805 19.8336 23.1805 20.7611 24.108C21.6885 25.0355 23.1886 25.0355 24.1161 24.108C25.0435 23.1805 25.0435 21.6805 24.1161 20.753ZM34.1488 30.7857C33.2213 29.8582 31.7213 29.8582 30.7938 30.7857C29.8663 31.7132 29.8663 33.2133 30.7938 34.1407C31.7213 35.0682 33.2213 35.0682 34.1488 34.1407C35.0763 33.2133 35.0763 31.7132 34.1488 30.7857ZM44.1815 40.8184C43.2541 39.891 41.754 39.891 40.8265 40.8184C39.8991 41.7459 39.8991 43.246 40.8265 44.1735C41.754 45.1009 43.2541 45.1009 44.1815 44.1735C45.1009 43.246 45.1009 41.7459 44.1815 40.8184ZM54.2143 50.8512C53.2868 49.9237 51.7867 49.9237 50.8593 50.8512C49.9318 51.7786 49.9318 53.2787 50.8593 54.2062C51.7867 55.1337 53.2868 55.1337 54.2143 54.2062C55.1337 53.2787 55.1337 51.7786 54.2143 50.8512ZM64.2389 60.8839C63.3115 59.9564 61.8114 59.9564 60.8839 60.8839C59.9565 61.8114 59.9565 63.3115 60.8839 64.2389C61.8114 65.1664 63.3115 65.1664 64.2389 64.2389C65.1664 63.3115 65.1664 61.8114 64.2389 60.8839ZM14.0833 30.7857C13.1559 29.8582 11.6558 29.8582 10.7283 30.7857C9.80087 31.7132 9.80087 33.2133 10.7283 34.1407C11.6558 35.0682 13.1559 35.0682 14.0833 34.1407C15.0108 33.2133 15.0108 31.7132 14.0833 30.7857ZM24.1161 40.8184C23.1886 39.891 21.6885 39.891 20.7611 40.8184C19.8336 41.7459 19.8336 43.246 20.7611 44.1735C21.6885 45.1009 23.1886 45.1009 24.1161 44.1735C25.0435 43.246 25.0435 41.7459 24.1161 40.8184ZM34.1488 50.8512C33.2213 49.9237 31.7213 49.9237 30.7938 50.8512C29.8663 51.7786 29.8663 53.2787 30.7938 54.2062C31.7213 55.1337 33.2213 55.1337 34.1488 54.2062C35.0763 53.2787 35.0763 51.7786 34.1488 50.8512ZM44.1815 60.8839C43.2541 59.9564 41.754 59.9564 40.8265 60.8839C39.8991 61.8114 39.8991 63.3115 40.8265 64.2389C41.754 65.1664 43.2541 65.1664 44.1815 64.2389C45.1009 63.3115 45.1009 61.8114 44.1815 60.8839ZM54.2143 70.9166C53.2868 69.9892 51.7867 69.9892 50.8593 70.9166C49.9318 71.8441 49.9318 73.3442 50.8593 74.2717C51.7867 75.1991 53.2868 75.1991 54.2143 74.2717C55.1337 73.3442 55.1337 71.8441 54.2143 70.9166ZM4.0506 40.8184C3.12313 39.891 1.62306 39.891 0.695597 40.8184C-0.231866 41.7459 -0.231866 43.246 0.695597 44.1735C1.62306 45.1009 3.12313 45.1009 4.0506 44.1735C4.97806 43.246 4.97806 41.7459 4.0506 40.8184ZM14.0833 50.8512C13.1559 49.9237 11.6558 49.9237 10.7283 50.8512C9.80087 51.7786 9.80087 53.2787 10.7283 54.2062C11.6558 55.1337 13.1559 55.1337 14.0833 54.2062C15.0108 53.2787 15.0108 51.7786 14.0833 50.8512ZM24.1161 60.8839C23.1886 59.9564 21.6885 59.9564 20.7611 60.8839C19.8336 61.8114 19.8336 63.3115 20.7611 64.2389C21.6885 65.1664 23.1886 65.1664 24.1161 64.2389C25.0435 63.3115 25.0435 61.8114 24.1161 60.8839ZM34.1488 70.9166C33.2213 69.9892 31.7213 69.9892 30.7938 70.9166C29.8663 71.8441 29.8663 73.3442 30.7938 74.2717C31.7213 75.1991 33.2213 75.1991 34.1488 74.2717C35.0763 73.3442 35.0763 71.8441 34.1488 70.9166ZM44.1815 80.9494C43.2541 80.0219 41.754 80.0219 40.8265 80.9494C39.8991 81.8768 39.8991 83.3769 40.8265 84.3044C41.754 85.2319 43.2541 85.2319 44.1815 84.3044C45.109 83.3769 45.1009 81.8768 44.1815 80.9494Z" fill="#FF9F46"/>
</svg>
