<svg width="44" height="85" viewBox="0 0 44 85" fill="none" xmlns="http://www.w3.org/2000/svg">
<path d="M3.18154 4.0506C2.25407 4.97806 0.753998 4.97806 -0.173466 4.0506C-1.10093 3.12313 -1.10093 1.62306 -0.173466 0.695597C0.753998 -0.231866 2.25407 -0.231866 3.18154 0.695597C4.10094 1.615 4.10094 3.12313 3.18154 4.0506ZM13.2143 10.7203C12.2868 9.7928 10.7867 9.7928 9.85927 10.7203C8.93181 11.6477 8.93181 13.1478 9.85927 14.0753C10.7867 15.0027 12.2868 15.0027 13.2143 14.0753C14.1337 13.1559 14.1337 11.6477 13.2143 10.7203ZM23.2389 20.753C22.3115 19.8255 20.8114 19.8255 19.8839 20.753C18.9565 21.6805 18.9565 23.1805 19.8839 24.108C20.8114 25.0355 22.3115 25.0355 23.2389 24.108C24.1664 23.1805 24.1664 21.6805 23.2389 20.753ZM33.2717 30.7857C32.3442 29.8582 30.8441 29.8582 29.9167 30.7857C28.9892 31.7132 28.9892 33.2133 29.9167 34.1407C30.8441 35.0682 32.3442 35.0682 33.2717 34.1407C34.1991 33.2133 34.1991 31.7132 33.2717 30.7857ZM43.3044 40.8184C42.3769 39.891 40.8769 39.891 39.9494 40.8184C39.0219 41.7459 39.0219 43.246 39.9494 44.1735C40.8769 45.1009 42.3769 45.1009 43.3044 44.1735C44.2319 43.246 44.2319 41.7459 43.3044 40.8184ZM-6.8512 10.7203C-7.77866 9.7928 -9.27874 9.7928 -10.2062 10.7203C-11.1337 11.6477 -11.1337 13.1478 -10.2062 14.0753C-9.27874 15.0027 -7.77866 15.0027 -6.8512 14.0753C-5.92374 13.1559 -5.92374 11.6477 -6.8512 10.7203ZM3.18154 20.753C2.25407 19.8255 0.753998 19.8255 -0.173466 20.753C-1.10093 21.6805 -1.10093 23.1805 -0.173466 24.108C0.753998 25.0355 2.25407 25.0355 3.18154 24.108C4.10094 23.1805 4.10094 21.6805 3.18154 20.753ZM13.2143 30.7857C12.2868 29.8582 10.7867 29.8582 9.85927 30.7857C8.93181 31.7132 8.93181 33.2133 9.85927 34.1407C10.7867 35.0682 12.2868 35.0682 13.2143 34.1407C14.1337 33.2133 14.1337 31.7132 13.2143 30.7857ZM23.2389 40.8184C22.3115 39.891 20.8114 39.891 19.8839 40.8184C18.9565 41.7459 18.9565 43.246 19.8839 44.1735C20.8114 45.1009 22.3115 45.1009 23.2389 44.1735C24.1664 43.246 24.1664 41.7459 23.2389 40.8184ZM33.2717 50.8512C32.3442 49.9237 30.8441 49.9237 29.9167 50.8512C28.9892 51.7786 28.9892 53.2787 29.9167 54.2062C30.8441 55.1337 32.3442 55.1337 33.2717 54.2062C34.1991 53.2787 34.1991 51.7786 33.2717 50.8512ZM-16.8839 20.753C-17.8114 19.8255 -19.3115 19.8255 -20.2389 20.753C-21.1664 21.6805 -21.1664 23.1805 -20.2389 24.108C-19.3115 25.0355 -17.8114 25.0355 -16.8839 24.108C-15.9565 23.1805 -15.9565 21.6805 -16.8839 20.753ZM-6.8512 30.7857C-7.77866 29.8582 -9.27874 29.8582 -10.2062 30.7857C-11.1337 31.7132 -11.1337 33.2133 -10.2062 34.1407C-9.27874 35.0682 -7.77866 35.0682 -6.8512 34.1407C-5.92374 33.2133 -5.92374 31.7132 -6.8512 30.7857ZM3.18154 40.8184C2.25407 39.891 0.753998 39.891 -0.173466 40.8184C-1.10093 41.7459 -1.10093 43.246 -0.173466 44.1735C0.753998 45.1009 2.25407 45.1009 3.18154 44.1735C4.10094 43.246 4.10094 41.7459 3.18154 40.8184ZM13.2143 50.8512C12.2868 49.9237 10.7867 49.9237 9.85927 50.8512C8.93181 51.7786 8.93181 53.2787 9.85927 54.2062C10.7867 55.1337 12.2868 55.1337 13.2143 54.2062C14.1337 53.2787 14.1337 51.7786 13.2143 50.8512ZM23.2389 60.8839C22.3115 59.9564 20.8114 59.9564 19.8839 60.8839C18.9565 61.8114 18.9565 63.3115 19.8839 64.2389C20.8114 65.1664 22.3115 65.1664 23.2389 64.2389C24.1664 63.3115 24.1664 61.8114 23.2389 60.8839ZM-26.9167 30.7857C-27.8441 29.8582 -29.3442 29.8582 -30.2717 30.7857C-31.1991 31.7132 -31.1991 33.2133 -30.2717 34.1407C-29.3442 35.0682 -27.8441 35.0682 -26.9167 34.1407C-25.9892 33.2133 -25.9892 31.7132 -26.9167 30.7857ZM-16.8839 40.8184C-17.8114 39.891 -19.3115 39.891 -20.2389 40.8184C-21.1664 41.7459 -21.1664 43.246 -20.2389 44.1735C-19.3115 45.1009 -17.8114 45.1009 -16.8839 44.1735C-15.9565 43.246 -15.9565 41.7459 -16.8839 40.8184ZM-6.8512 50.8512C-7.77866 49.9237 -9.27874 49.9237 -10.2062 50.8512C-11.1337 51.7786 -11.1337 53.2787 -10.2062 54.2062C-9.27874 55.1337 -7.77866 55.1337 -6.8512 54.2062C-5.92374 53.2787 -5.92374 51.7786 -6.8512 50.8512ZM3.18154 60.8839C2.25407 59.9564 0.753998 59.9564 -0.173466 60.8839C-1.10093 61.8114 -1.10093 63.3115 -0.173466 64.2389C0.753998 65.1664 2.25407 65.1664 3.18154 64.2389C4.10094 63.3115 4.10094 61.8114 3.18154 60.8839ZM13.2143 70.9166C12.2868 69.9892 10.7867 69.9892 9.85927 70.9166C8.93181 71.8441 8.93181 73.3442 9.85927 74.2717C10.7867 75.1991 12.2868 75.1991 13.2143 74.2717C14.1337 73.3442 14.1337 71.8441 13.2143 70.9166ZM-36.9494 40.8184C-37.8769 39.891 -39.3769 39.891 -40.3044 40.8184C-41.2319 41.7459 -41.2319 43.246 -40.3044 44.1735C-39.3769 45.1009 -37.8769 45.1009 -36.9494 44.1735C-36.0219 43.246 -36.0219 41.7459 -36.9494 40.8184ZM-26.9167 50.8512C-27.8441 49.9237 -29.3442 49.9237 -30.2717 50.8512C-31.1991 51.7786 -31.1991 53.2787 -30.2717 54.2062C-29.3442 55.1337 -27.8441 55.1337 -26.9167 54.2062C-25.9892 53.2787 -25.9892 51.7786 -26.9167 50.8512ZM-16.8839 60.8839C-17.8114 59.9564 -19.3115 59.9564 -20.2389 60.8839C-21.1664 61.8114 -21.1664 63.3115 -20.2389 64.2389C-19.3115 65.1664 -17.8114 65.1664 -16.8839 64.2389C-15.9565 63.3115 -15.9565 61.8114 -16.8839 60.8839ZM-6.8512 70.9166C-7.77866 69.9892 -9.27874 69.9892 -10.2062 70.9166C-11.1337 71.8441 -11.1337 73.3442 -10.2062 74.2717C-9.27874 75.1991 -7.77866 75.1991 -6.8512 74.2717C-5.92374 73.3442 -5.92374 71.8441 -6.8512 70.9166ZM3.18154 80.9494C2.25407 80.0219 0.753998 80.0219 -0.173466 80.9494C-1.10093 81.8768 -1.10093 83.3769 -0.173466 84.3044C0.753998 85.2319 2.25407 85.2319 3.18154 84.3044C4.109 83.3769 4.10094 81.8768 3.18154 80.9494Z" fill="#FF9F46"/>
</svg>
