<svg width="1440" height="720" viewBox="0 0 1440 720" fill="none" xmlns="http://www.w3.org/2000/svg">
<g clip-path="url(#clip0_59:108542)">
<rect width="1440" height="720" fill="#1D61D5"/>
<rect width="1440" height="720" fill="#1D61D5"/>
<path d="M1075.31 -16.2225C1064.29 16.7175 1070.52 55.1175 1093.09 81.8575C1113.09 105.508 1146.51 120.438 1177.16 110.548C1204.32 101.778 1227.49 73.8275 1222.5 44.1675C1218.1 17.9975 1190.64 -3.74248 1164 0.647516C1137 5.08752 1124 33.8275 1126.06 58.7575C1128.51 89.0575 1151.79 110.758 1178.61 121.868C1214.22 136.668 1253.18 133.618 1290.85 134.588C1326 135.488 1365.07 141.088 1391.15 167.128C1418.15 194.048 1419.41 235.958 1404.28 269.188C1396.61 286.028 1385.28 301.048 1372.18 314.038C1358.9 327.217 1343.42 338.588 1325.92 345.498C1293.82 358.158 1251.03 353.647 1231.38 322.098C1222.86 308.408 1219.57 291.008 1224.67 275.498C1229.67 260.308 1242.57 249.328 1257.49 244.388C1272.59 239.336 1289.07 240.376 1303.41 247.288C1318.29 254.557 1330.03 267.128 1337.81 281.608C1356.97 317.298 1349.43 359.758 1335.81 395.928C1322.74 430.638 1303.87 464.777 1304.62 502.927C1304.92 518.417 1308.34 534.178 1316.55 547.468C1325 561.098 1338.08 570.598 1353 576.228C1390.25 590.348 1430.81 580.028 1469.09 587.997C1500.55 594.557 1529.4 611.888 1550.76 635.798C1561.49 647.752 1570.19 661.373 1576.54 676.128C1584.1 693.878 1586.54 713.348 1594.44 730.958C1600.64 744.758 1611.58 758.188 1626.79 762.148C1644.72 766.818 1661.94 756.927 1677.55 749.448C1692.38 742.328 1712 735.997 1726.61 746.997C1727.77 747.867 1728.89 745.907 1727.74 745.057C1714.74 735.277 1697.35 738.677 1683.34 744.388C1666.03 751.448 1648.19 764.737 1628.47 760.247C1610.47 756.167 1599.47 739.037 1593.53 722.818C1587.3 705.638 1584.36 687.547 1576.61 670.888C1563.56 642.788 1541.42 619.128 1514.79 603.427C1501.45 595.531 1486.96 589.755 1471.85 586.307C1452.69 581.987 1433 582.308 1413.47 582.228C1378 581.998 1335.89 577.997 1316.78 543.367C1299.16 511.367 1307.78 473.028 1320.05 440.938C1334.19 404.058 1352.61 368.188 1351.6 327.608C1350.79 295.478 1336.04 261.938 1306.55 246.368C1281.84 233.368 1247.9 237.738 1230.18 260.488C1211.51 284.488 1220.34 320.338 1242.92 338.488C1269.42 359.778 1306.92 357.998 1336.07 343.408C1366.82 327.988 1393.62 299.568 1407.25 268.008C1420.5 237.318 1420.33 199.488 1398.88 172.428C1378.78 147.068 1345.37 136.728 1314.32 133.688C1274.32 129.788 1233.22 136.078 1194.12 124.888C1164.21 116.338 1133.87 96.2075 1128.83 63.2675C1124.71 36.3175 1139.18 2.86752 1170.14 2.33752C1185.01 2.08752 1199.28 9.84752 1208.84 20.9275C1219.25 32.7416 1223.19 48.9202 1219.37 64.1975C1215.47 79.7575 1204.65 93.1075 1191.17 101.538C1176.95 110.375 1159.87 113.404 1143.47 109.998C1108.2 102.938 1081.92 72.7075 1074.47 38.3275C1070.62 20.4033 1071.66 1.77445 1077.47 -15.6125C1077.94 -17.0025 1075.77 -17.5925 1075.31 -16.2225Z" fill="#1A73E8"/>
<path d="M-42.6899 347.778C-53.7099 380.718 -47.4799 419.118 -24.9099 445.858C-4.90994 469.508 28.5101 484.438 59.1601 474.548C86.3201 465.778 109.49 437.828 104.5 408.168C100.1 381.998 72.6401 360.258 46.0001 364.648C19.0001 369.088 6.00005 397.828 8.06005 422.758C10.5101 453.058 33.7901 474.758 60.6101 485.868C96.2201 500.668 135.18 497.618 172.85 498.588C208 499.488 247.07 505.088 273.15 531.128C300.15 558.048 301.41 599.958 286.28 633.188C278.61 650.028 267.28 665.048 254.18 678.038C240.9 691.217 225.42 702.588 207.92 709.498C175.82 722.158 133.03 717.647 113.38 686.098C104.86 672.408 101.57 655.008 106.67 639.498C111.67 624.308 124.57 613.328 139.49 608.388C154.59 603.336 171.065 604.376 185.41 611.288C200.29 618.557 212.03 631.128 219.81 645.608C238.97 681.298 231.43 723.758 217.81 759.928C204.74 794.638 185.87 828.777 186.62 866.927C186.92 882.417 190.34 898.178 198.55 911.468C207 925.098 220.08 934.598 235 940.228C272.25 954.348 312.81 944.028 351.09 951.997C382.55 958.557 411.4 975.888 432.76 999.798C443.486 1011.75 452.194 1025.37 458.54 1040.13C466.1 1057.88 468.54 1077.35 476.44 1094.96C482.64 1108.76 493.58 1122.19 508.79 1126.15C526.72 1130.82 543.94 1120.93 559.55 1113.45C574.38 1106.33 594 1100 608.61 1111C609.77 1111.87 610.89 1109.91 609.74 1109.06C596.74 1099.28 579.35 1102.68 565.34 1108.39C548.03 1115.45 530.19 1128.74 510.47 1124.25C492.47 1120.17 481.47 1103.04 475.53 1086.82C469.3 1069.64 466.36 1051.55 458.61 1034.89C445.56 1006.79 423.42 983.128 396.79 967.427C383.45 959.531 368.964 953.755 353.85 950.307C334.69 945.987 315 946.308 295.47 946.228C260 945.998 217.89 941.997 198.78 907.367C181.16 875.367 189.78 837.028 202.05 804.938C216.19 768.058 234.61 732.188 233.6 691.608C232.79 659.478 218.04 625.938 188.55 610.368C163.84 597.368 129.9 601.738 112.18 624.488C93.5101 648.488 102.34 684.338 124.92 702.488C151.42 723.778 188.92 721.998 218.07 707.408C248.82 691.988 275.62 663.568 289.25 632.008C302.5 601.318 302.33 563.488 280.88 536.428C260.78 511.068 227.37 500.728 196.32 497.688C156.32 493.788 115.22 500.078 76.1201 488.888C46.2101 480.338 15.8701 460.208 10.8301 427.268C6.71006 400.318 21.1801 366.868 52.1401 366.338C67.0101 366.088 81.2801 373.848 90.8401 384.928C101.252 396.742 105.189 412.92 101.37 428.198C97.4701 443.758 86.6501 457.108 73.1701 465.538C58.9452 474.375 41.8665 477.404 25.4701 473.998C-9.79995 466.938 -36.0799 436.708 -43.5299 402.328C-47.3783 384.403 -46.3422 365.774 -40.5299 348.388C-40.0599 346.998 -42.2299 346.408 -42.6899 347.778Z" fill="#1A73E8"/>
</g>
<defs>
<clipPath id="clip0_59:108542">
<rect width="1440" height="720" fill="white"/>
</clipPath>
</defs>
</svg>
